<svg xmlns="http://www.w3.org/2000/svg" width="30" height="18" viewBox="0 0 30 18"><path d="M15.48,12a.508.508,0,0,0-.347.152l-2.638,2.63-1.625-1.62c-.455-.474-1.19.258-.715.712l1.983,1.978a.506.506,0,0,0,.715,0l2.995-2.987A.506.506,0,0,0,15.481,12ZM.5,16h3a.5.5,0,0,1,0,1H.5a.5.5,0,0,1,0-1Zm0-4h3a.5.5,0,0,1,0,1H.5a.5.5,0,0,1,0-1Zm0-4h3a.5.5,0,0,1,0,1H.5a.5.5,0,0,1,0-1Zm24,11A2.5,2.5,0,1,0,27,21.5,2.507,2.507,0,0,0,24.5,19Zm0,1A1.5,1.5,0,1,1,23,21.5,1.493,1.493,0,0,1,24.5,20Zm-13-1A2.5,2.5,0,1,0,14,21.5,2.507,2.507,0,0,0,11.5,19Zm0,1A1.5,1.5,0,1,1,10,21.5,1.493,1.493,0,0,1,11.5,20ZM6.5,6A1.508,1.508,0,0,0,5,7.5v11A1.508,1.508,0,0,0,6.5,20h2a.5.5,0,1,0,0-1h-2a.488.488,0,0,1-.5-.5V7.5A.488.488,0,0,1,6.5,7h13a.488.488,0,0,1,.5.5V19H14.5a.5.5,0,0,0,0,1h7a.5.5,0,0,0,0-1H21V10h4.227L29,15.9v2.6a.488.488,0,0,1-.5.5h-1a.5.5,0,0,0,0,1h1A1.508,1.508,0,0,0,30,18.5V15.75a.505.505,0,0,0-.078-.27l-4-6.25A.5.5,0,0,0,25.5,9H21V7.5A1.508,1.508,0,0,0,19.5,6Z" transform="translate(0 -6)"/></svg>